<svg width="85" height="25" viewBox="0 0 85 25" fill="none" xmlns="http://www.w3.org/2000/svg">
<path d="M49.0794 1.89305C49.0794 2.95104 48.2836 3.78623 47.2754 3.78623C46.2673 3.78623 45.4714 2.95104 45.4714 1.89305C45.4714 0.835191 46.2673 0 47.2754 0C48.2305 0 49.0794 0.835191 49.0794 1.89305Z" fill="#9799A6"/>
<path d="M10.1873 16.6481C9.65669 16.9822 8.27717 17.2049 6.9507 17.2049C2.38764 17.2049 0 13.6415 0 9.02004C0 4.34302 2.33458 0.835191 6.84457 0.835191C8.38328 0.835191 9.65669 1.28065 10.1873 1.50332L10.0281 4.12022C9.96787 4.09154 9.90482 4.05919 9.83858 4.02439C9.79421 4.00114 9.74842 3.97667 9.7011 3.95139C9.13453 3.64893 8.34864 3.22943 7.16293 3.22943C4.8814 3.22943 2.91823 4.84408 2.91823 9.02004C2.91823 13.1404 4.8814 14.8108 7.16293 14.8108C8.4894 14.8108 9.3914 14.4766 10.0281 13.9756L10.1873 16.6481Z" fill="#9799A6"/>
<path d="M20.7991 5.17821C20.9052 5.73501 20.9052 6.40313 20.9052 7.12699H20.8522V16.9265H23.5582V10.078C23.5582 8.63031 24.0357 7.34966 25.4683 7.34966C26.5825 7.34966 27.007 8.12925 27.007 9.91096V16.9822H29.713V9.40977C29.713 7.01566 28.9702 5.01115 26.4234 5.01115C24.6194 5.01115 23.8235 6.2918 23.4521 7.01566H23.399C23.399 6.7094 23.3725 6.40313 23.3459 6.09687C23.3194 5.7906 23.2929 5.48434 23.2929 5.17821H20.7991Z" fill="#9799A6"/>
<path d="M32.2596 2.78397L35.0187 1.89305V5.17808H37.3002V7.29392H35.0187V13.4187C35.0187 14.6993 35.4431 15.0334 36.239 15.0334C36.7165 15.0334 37.088 14.922 37.2471 14.8106V16.8152C36.8227 17.0378 36.239 17.2049 35.3901 17.2049C33.3208 17.2049 32.2066 16.2584 32.2066 13.7528V7.29392H30.4026V5.17808H32.2066V2.78397H32.2596Z" fill="#9799A6"/>
<path d="M38.7329 5.17821C38.7859 5.73501 38.839 6.40313 38.839 7.12699H38.8921V16.9822H41.6511V10.5234C41.6511 8.35191 42.8715 7.62805 44.0388 7.62805L44.8346 7.73938V5.06688L44.3571 5.01115C42.6062 5.01115 41.7042 6.45887 41.3858 7.34966H41.3328C41.3328 6.98766 41.3195 6.6258 41.3062 6.26393C41.293 5.90207 41.2797 5.54021 41.2797 5.17821H38.7329Z" fill="#9799A6"/>
<path d="M49.398 5.17835H52.1571L54.3855 14.2541H54.4386L56.7201 5.17835H59.2669L55.8712 16.9824H52.7407L49.398 5.17835Z" fill="#9799A6"/>
<path d="M68.0214 1.89305L65.3154 2.78397V5.17808H63.5114V7.29392H65.3154V13.7528C65.3154 16.2584 66.4296 17.2049 68.4459 17.2049C69.2418 17.2049 69.8254 17.0378 70.2499 16.8152V14.8106C70.0907 14.922 69.7193 15.0334 69.2418 15.0334C68.4459 15.0334 68.0214 14.6993 68.0214 13.4187V7.29392H70.3029V5.17808H68.0214V1.89305Z" fill="#9799A6"/>
<path d="M76.0863 14.0871L78.3148 5.17835H80.9677L76.7761 19.2095C76.2986 20.8243 75.3435 22.0492 73.5395 22.0492C72.7967 22.0492 72.16 21.8822 71.7886 21.7708L71.9478 19.5993C72.2661 19.7107 72.5845 19.8221 73.0089 19.8221C73.8579 19.8221 74.1762 19.3209 74.5476 18.0959L74.7599 17.0937L70.9396 5.17835H73.8048L76.0863 14.0871Z" fill="#9799A6"/>
<path d="M48.6551 5.17835H45.843V16.9824H48.6551V5.17835Z" fill="#9799A6"/>
<path d="M62.7153 5.17835H59.8502V16.9824H62.7153V5.17835Z" fill="#9799A6"/>
<path d="M63.0872 1.89305C63.0872 2.95104 62.2913 3.78623 61.2832 3.78623C60.275 3.78623 59.4792 2.95104 59.4792 1.89305C59.4792 0.835191 60.275 0 61.2832 0C62.2913 0 63.0872 0.835191 63.0872 1.89305Z" fill="#9799A6"/>
<path d="M59.3199 18.8753C59.3199 18.8753 57.6751 22.3831 54.2793 22.2718C51.3891 22.3665 49.7673 19.8396 49.283 19.085C49.1983 18.953 49.1484 18.8753 49.1326 18.8753H46.1083C46.1083 18.8753 47.647 25 54.2262 25C60.8586 25 62.3442 18.8753 62.3442 18.8753H59.3199Z" fill="#9799A6"/>
<path fill-rule="evenodd" clip-rule="evenodd" d="M83.0903 4.00903H83.4617C83.7801 4.00903 84.0984 4.06476 84.0984 4.45449C84.0984 4.67715 83.9392 4.78848 83.7801 4.84422C83.8331 4.89995 83.8862 4.89995 83.9392 5.01128L84.2576 5.67941H83.9923L83.727 5.12261C83.674 4.95555 83.5678 4.95555 83.4617 4.95555H83.3026V5.67941H83.0903V4.00903ZM83.3026 4.78848H83.5148C83.727 4.78848 83.8862 4.67715 83.8862 4.51009C83.8862 4.34316 83.7801 4.28742 83.5678 4.28742H83.3022L83.3026 4.78848Z" fill="#9799A6"/>
<path fill-rule="evenodd" clip-rule="evenodd" d="M82.1348 4.84408C82.1348 4.51009 82.241 4.17596 82.4001 3.95329C82.6654 3.56343 83.0899 3.34076 83.5674 3.34076C84.3633 3.34076 85 4.00889 85 4.84408C85 5.67927 84.3633 6.3474 83.5674 6.3474C82.7715 6.3474 82.1348 5.67927 82.1348 4.84408ZM83.5674 3.61916C83.196 3.61916 82.8246 3.84183 82.6124 4.17596C82.5062 4.39862 82.4001 4.62142 82.4001 4.84408C82.4001 5.51221 82.9307 6.069 83.5674 6.069C84.2041 6.069 84.7347 5.51221 84.7347 4.84408C84.7347 4.17596 84.2041 3.61916 83.5674 3.61916Z" fill="#9799A6"/>
<path fill-rule="evenodd" clip-rule="evenodd" d="M13.3707 11.804C13.3707 13.8085 14.1135 15.0334 16.1828 15.0334C17.8276 15.0334 18.6235 14.5324 19.101 14.1425L19.2602 16.3697C18.6766 16.6481 17.5093 17.1493 15.9175 17.1493C12.3095 17.1493 10.7708 14.4209 10.7708 11.2472C10.7708 7.73938 12.5218 5.01115 15.3339 5.01115C17.7215 5.01115 19.7908 6.51446 19.7908 11.3029V11.804H13.3707ZM13.3707 10.078C13.3707 8.51898 13.9543 6.95993 15.3869 6.95993C16.6073 6.95993 17.244 8.01778 17.244 10.078H13.3707Z" fill="#9799A6"/>
</svg>
