<svg width="85" height="12" viewBox="0 0 85 12" fill="none" xmlns="http://www.w3.org/2000/svg">
<path d="M77.7991 4.41347H79.7453L78.7235 9.20256C78.4316 10.8459 78.4316 11.8319 81.3022 11.8319C82.0321 11.8319 82.5186 11.8319 83.2484 11.738L83.589 10.0477H81.8861C80.9617 10.0477 81.059 9.48427 81.3022 8.49828L82.178 4.41347H84.6594L85 2.72321H82.5186L83.1511 0H80.767L80.1345 2.72321H78.1883L77.7991 4.41347Z" fill="#9799A6"/>
<path fill-rule="evenodd" clip-rule="evenodd" d="M43.9515 3.70406C42.8988 4.55325 42.2979 5.73962 42.3283 7.12793L42.3018 7.18382L42.3016 7.18426C42.3018 8.57715 42.8892 9.74676 43.9113 10.5677C44.9331 11.3884 46.3874 11.8593 48.1198 11.8593C49.9496 11.8593 51.4891 11.3531 52.5655 10.4855C53.6423 9.6176 54.2543 8.38911 54.2299 6.94883C54.2299 5.55587 53.6424 4.38624 52.6325 3.56527C51.623 2.74457 50.193 2.27354 48.509 2.27354C46.6551 2.27354 45.0792 2.77967 43.9784 3.64717L43.9515 3.70406ZM42.3016 7.18426L42.3018 7.18382H42.3299L42.3016 7.18426ZM45.9822 4.59576C45.4338 5.21222 45.1315 6.06249 45.1315 6.99601C45.1315 7.97645 45.4459 8.82656 46.0002 9.43117C46.5541 10.0355 47.3491 10.3962 48.3144 10.3962C49.279 10.3962 50.0496 10.0125 50.5795 9.39661C51.1098 8.78019 51.4001 7.9298 51.4001 6.99601C51.4001 5.12864 50.1435 3.5958 48.3144 3.5958C47.3252 3.5958 46.5303 3.97971 45.9822 4.59576Z" fill="#9799A6"/>
<path d="M23.0975 2.95761C23.955 2.49658 25.104 2.32031 26.2738 2.32031C27.5416 2.32031 29.2473 2.55545 30.5151 2.93189L30.5351 2.93782V5.0708L30.4868 5.09009C29.5215 4.1586 27.7795 3.68978 26.0806 3.68952C25.5949 3.73645 25.0765 3.81833 24.6799 3.99226C24.2837 4.16607 24.0153 4.42856 24.0153 4.83604C24.0153 5.06701 24.1197 5.24137 24.3054 5.37911C24.4925 5.51786 24.7619 5.61909 25.0896 5.70023C25.4168 5.78127 25.7992 5.84163 26.2106 5.90013C26.3164 5.91518 26.4241 5.9301 26.5333 5.94523C26.8478 5.98881 27.1746 6.03409 27.5011 6.0886C28.3805 6.23541 29.266 6.45035 29.935 6.88665C30.606 7.32431 31.058 7.98394 31.0703 9.01444C31.0703 9.58241 30.9292 10.0487 30.6773 10.4292C30.4256 10.8096 30.0642 11.103 29.626 11.3277C28.7505 11.7768 27.5654 11.953 26.3236 12L26.3225 12C24.6173 12 22.9602 11.765 21.838 11.4354L21.818 11.4295V9.34031L21.8616 9.36745C23.3639 10.3027 24.6717 10.5369 26.5171 10.5369C27.001 10.5369 27.5566 10.4551 27.9902 10.2807C28.4255 10.1057 28.727 9.84243 28.727 9.48427C28.727 9.19238 28.6199 8.96982 28.4324 8.79473C28.244 8.61875 27.9732 8.4896 27.6443 8.38856C27.1417 8.23413 26.5114 8.14743 25.848 8.05616C25.6421 8.02783 25.4329 7.99906 25.2234 7.96769C24.3417 7.83565 23.4547 7.65757 22.788 7.26934C22.4542 7.07493 22.1748 6.82743 21.9791 6.50611C21.7833 6.18471 21.672 5.79098 21.672 5.30556C21.672 5.0006 21.7127 4.72363 21.7888 4.47267C21.9169 4.01469 22.174 3.64472 22.5231 3.34991C22.6943 3.20099 22.8871 3.07073 23.0975 2.95761Z" fill="#9799A6"/>
<path d="M41.5514 4.88305V2.62937C40.7729 2.44156 39.7025 2.39461 38.6808 2.44156C34.3992 2.44156 31.6745 4.41353 31.6745 7.41845C31.6745 10.0947 34.2532 11.9728 38.0969 11.9728C39.3133 11.8789 40.4324 11.738 41.6974 11.4094V9.15567C40.8216 10.0947 39.7025 10.4703 38.5835 10.4703C36.2481 10.4703 34.7398 9.06177 34.7398 7.13674C34.7398 5.21172 36.3454 3.80316 38.5835 3.80316C39.7999 3.70926 40.7729 4.17877 41.5514 4.88305Z" fill="#9799A6"/>
<path d="M7.44417 11.6912C7.05493 11.3156 6.95763 10.9869 6.95763 10.1418L6.90897 4.085C8.51458 4.085 10.3635 4.36671 11.1419 4.93013V2.77034L0 2.86425V5.02403C0.778476 4.41366 2.48139 4.1789 4.23296 4.1789L4.33027 10.1418C4.33027 11.0339 4.23296 11.3156 3.84372 11.7851L7.44417 11.6912Z" fill="#9799A6"/>
<path d="M18.5376 8.02895C17.8078 7.8881 16.6888 7.79419 16.1536 7.79419H15.1805V10.2826H16.4455C17.3213 10.2826 19.6567 10.2826 20.7758 9.43751V11.6912H12.2125C12.5531 11.2217 12.6018 10.9869 12.6018 10.1418V4.31976C12.6018 3.47462 12.5045 3.23986 12.1152 2.77034H20.2406V4.93013C19.5107 4.31976 17.6132 4.085 16.4455 4.085H15.1805V6.47954H16.1536C16.7374 6.47954 17.8565 6.38564 18.5376 6.15088V8.02895Z" fill="#9799A6"/>
<path fill-rule="evenodd" clip-rule="evenodd" d="M77.5561 7.41844L77.4588 7.7471H68.7495C68.6036 8.73309 68.9442 10.2825 71.3283 10.2825C72.9339 10.2825 73.761 9.71908 74.3935 8.96785H77.0209C76.1937 10.0008 74.5395 11.9258 70.9877 11.9258C66.8034 11.9258 65.733 9.57822 66.3168 7.27758C66.9493 4.27267 69.674 2.39459 72.9825 2.39459C77.0695 2.39459 78.1399 4.78913 77.5561 7.41844ZM72.5933 3.944C71.4742 3.944 69.7713 4.36657 68.9928 6.24464H75.172C75.3179 4.50742 73.8096 3.944 72.5933 3.944Z" fill="#9799A6"/>
<path d="M56.8288 2.67635H59.2129L58.8723 4.0849C59.8941 3.09891 61.2564 2.44159 62.862 2.44159C64.8568 2.44159 66.6571 3.14586 66.1705 5.54041L64.8082 11.6441H62.4241L63.5432 6.29164C63.7864 5.3526 63.6891 4.1788 61.6943 4.1788C60.4779 4.1788 58.629 4.88309 58.2398 6.80811L57.2181 11.5972H54.834L56.8288 2.67635Z" fill="#9799A6"/>
</svg>
