<svg width="216" height="150" viewBox="0 0 216 150" fill="none" xmlns="http://www.w3.org/2000/svg">
<g opacity="0.2">
<path d="M216 108C216 112.971 211.971 117 207 117C202.029 117 198 112.971 198 108C198 103.029 202.029 99 207 99C211.971 99 216 103.029 216 108Z" fill="#233443"/>
<path d="M183 108C183 112.971 178.971 117 174 117C169.029 117 165 112.971 165 108C165 103.029 169.029 99 174 99C178.971 99 183 103.029 183 108Z" fill="#233443"/>
<path d="M150 108C150 112.971 145.971 117 141 117C136.029 117 132 112.971 132 108C132 103.029 136.029 99 141 99C145.971 99 150 103.029 150 108Z" fill="#233443"/>
<path d="M117 108C117 112.971 112.971 117 108 117C103.029 117 99 112.971 99 108C99 103.029 103.029 99 108 99C112.971 99 117 103.029 117 108Z" fill="#233443"/>
<path d="M84 108C84 112.971 79.9706 117 75 117C70.0294 117 66 112.971 66 108C66 103.029 70.0294 99 75 99C79.9706 99 84 103.029 84 108Z" fill="#233443"/>
<path d="M51 108C51 112.971 46.9706 117 42 117C37.0294 117 33 112.971 33 108C33 103.029 37.0294 99 42 99C46.9706 99 51 103.029 51 108Z" fill="#233443"/>
<path d="M18 108C18 112.971 13.9706 117 9 117C4.02944 117 0 112.971 0 108C0 103.029 4.02944 99 9 99C13.9706 99 18 103.029 18 108Z" fill="#233443"/>
<path d="M200 75C200 79.9706 195.971 84 191 84C186.029 84 182 79.9706 182 75C182 70.0294 186.029 66 191 66C195.971 66 200 70.0294 200 75Z" fill="#233443"/>
<path d="M167 75C167 79.9706 162.971 84 158 84C153.029 84 149 79.9706 149 75C149 70.0294 153.029 66 158 66C162.971 66 167 70.0294 167 75Z" fill="#233443"/>
<path d="M134 75C134 79.9706 129.971 84 125 84C120.029 84 116 79.9706 116 75C116 70.0294 120.029 66 125 66C129.971 66 134 70.0294 134 75Z" fill="#233443"/>
<path d="M101 75C101 79.9706 96.9706 84 92 84C87.0294 84 83 79.9706 83 75C83 70.0294 87.0294 66 92 66C96.9706 66 101 70.0294 101 75Z" fill="#233443"/>
<path d="M68 75C68 79.9706 63.9706 84 59 84C54.0294 84 50 79.9706 50 75C50 70.0294 54.0294 66 59 66C63.9706 66 68 70.0294 68 75Z" fill="#233443"/>
<path d="M35 75C35 79.9706 30.9706 84 26 84C21.0294 84 17 79.9706 17 75C17 70.0294 21.0294 66 26 66C30.9706 66 35 70.0294 35 75Z" fill="#233443"/>
<path d="M216 42C216 46.9706 211.971 51 207 51C202.029 51 198 46.9706 198 42C198 37.0294 202.029 33 207 33C211.971 33 216 37.0294 216 42Z" fill="#233443"/>
<path d="M183 42C183 46.9706 178.971 51 174 51C169.029 51 165 46.9706 165 42C165 37.0294 169.029 33 174 33C178.971 33 183 37.0294 183 42Z" fill="#233443"/>
<path d="M150 42C150 46.9706 145.971 51 141 51C136.029 51 132 46.9706 132 42C132 37.0294 136.029 33 141 33C145.971 33 150 37.0294 150 42Z" fill="#233443"/>
<path d="M117 42C117 46.9706 112.971 51 108 51C103.029 51 99 46.9706 99 42C99 37.0294 103.029 33 108 33C112.971 33 117 37.0294 117 42Z" fill="#233443"/>
<path d="M84 42C84 46.9706 79.9706 51 75 51C70.0294 51 66 46.9706 66 42C66 37.0294 70.0294 33 75 33C79.9706 33 84 37.0294 84 42Z" fill="#233443"/>
<path d="M51 42C51 46.9706 46.9706 51 42 51C37.0294 51 33 46.9706 33 42C33 37.0294 37.0294 33 42 33C46.9706 33 51 37.0294 51 42Z" fill="#233443"/>
<path d="M18 42C18 46.9706 13.9706 51 9 51C4.02944 51 0 46.9706 0 42C0 37.0294 4.02944 33 9 33C13.9706 33 18 37.0294 18 42Z" fill="#233443"/>
<path d="M166 9C166 13.9706 161.971 18 157 18C152.029 18 148 13.9706 148 9C148 4.02944 152.029 0 157 0C161.971 0 166 4.02944 166 9Z" fill="#233443"/>
<path d="M133 9C133 13.9706 128.971 18 124 18C119.029 18 115 13.9706 115 9C115 4.02944 119.029 0 124 0C128.971 0 133 4.02944 133 9Z" fill="#233443"/>
<path d="M100 9C100 13.9706 95.9706 18 91 18C86.0294 18 82 13.9706 82 9C82 4.02944 86.0294 0 91 0C95.9706 0 100 4.02944 100 9Z" fill="#233443"/>
<path d="M67 9C67 13.9706 62.9706 18 58 18C53.0294 18 49 13.9706 49 9C49 4.02944 53.0294 0 58 0C62.9706 0 67 4.02944 67 9Z" fill="#233443"/>
<path d="M166 141C166 145.971 161.971 150 157 150C152.029 150 148 145.971 148 141C148 136.029 152.029 132 157 132C161.971 132 166 136.029 166 141Z" fill="#233443"/>
<path d="M133 141C133 145.971 128.971 150 124 150C119.029 150 115 145.971 115 141C115 136.029 119.029 132 124 132C128.971 132 133 136.029 133 141Z" fill="#233443"/>
<path d="M100 141C100 145.971 95.9706 150 91 150C86.0294 150 82 145.971 82 141C82 136.029 86.0294 132 91 132C95.9706 132 100 136.029 100 141Z" fill="#233443"/>
<path d="M67 141C67 145.971 62.9706 150 58 150C53.0294 150 49 145.971 49 141C49 136.029 53.0294 132 58 132C62.9706 132 67 136.029 67 141Z" fill="#233443"/>
</g>
</svg>
