<svg width="298" height="313" viewBox="0 0 298 313" fill="none" xmlns="http://www.w3.org/2000/svg">
<path opacity="0.2" d="M138.5 38.4998L144.736 48.1622L138.5 38.4998ZM105 202L114.632 195.718L105 202ZM237 216.5L227.61 209.861L237 216.5ZM163 126L161.817 114.561L163 126ZM0.406009 298.427C-1.01495 304.617 2.85135 310.788 9.04163 312.208C15.2319 313.629 21.402 309.763 22.823 303.573L0.406009 298.427ZM314.378 8.36584C296.257 3.68067 265.979 -0.805595 232.868 0.546837C199.839 1.89591 162.843 9.10179 132.264 28.8374L144.736 48.1622C170.557 31.4977 202.977 24.7869 233.807 23.5277C264.554 22.2718 292.577 26.4855 308.621 30.6337L314.378 8.36584ZM132.264 28.8374C93.5743 53.8072 78.0186 89.5642 75.4087 123.493C72.84 156.887 82.7307 188.906 95.3673 208.282L114.632 195.718C104.769 180.594 96.1597 153.613 98.341 125.257C100.481 97.4355 112.925 68.6923 144.736 48.1622L132.264 28.8374ZM95.3673 208.282C110.841 232.008 136.646 251.368 164.685 257.155C193.596 263.121 224.279 254.411 246.39 223.139L227.61 209.861C211.036 233.302 189.74 238.841 169.334 234.629C148.055 230.238 127.202 214.992 114.632 195.718L95.3673 208.282ZM246.39 223.139C256.439 208.927 260.803 194.135 259.833 179.854C258.867 165.63 252.679 152.926 243.384 142.702C224.982 122.46 193.955 111.236 161.817 114.561L164.183 137.439C190.045 134.764 213.518 144.04 226.366 158.173C232.696 165.137 236.321 173.089 236.886 181.412C237.447 189.678 235.061 199.323 227.61 209.861L246.39 223.139ZM161.817 114.561C141.109 116.703 109.51 121.525 78.5194 147.322C47.6251 173.039 18.7876 218.35 0.406009 298.427L22.823 303.573C40.487 226.621 67.4121 186.494 93.2341 164.999C118.96 143.584 145.031 139.42 164.183 137.439L161.817 114.561Z" fill="#233443"/>
</svg>
